<svg width="22" height="20" viewBox="0 0 22 20" fill="none" xmlns="http://www.w3.org/2000/svg">
<path d="M17.2237 11.1333L13.1429 14.4444H7.66667V13.3333H12.1188C12.2179 13.3333 12.3151 13.306 12.4 13.2543C12.485 13.2027 12.5546 13.1286 12.6013 13.04C12.6481 12.9514 12.6703 12.8516 12.6655 12.7512C12.6608 12.6509 12.6293 12.5537 12.5744 12.47L11.6019 10.99C11.4023 10.6853 11.1316 10.4355 10.8138 10.2628C10.496 10.09 10.141 9.99976 9.78048 10H1.09524C0.804763 10 0.526185 10.1171 0.320788 10.3254C0.115391 10.5338 0 10.8164 0 11.1111V17.7778C0 18.3671 0.230782 18.9324 0.641576 19.3491C1.05237 19.7659 1.60953 20 2.19048 20H12.7475C13.2158 20.0001 13.6788 19.8986 14.1053 19.7024C14.5318 19.5062 14.912 19.2197 15.2205 18.8622L21.9048 11.1111L20.3145 10.5733C19.7942 10.3974 19.2387 10.3565 18.6988 10.4543C18.1589 10.5521 17.6518 10.7856 17.2237 11.1333ZM14.6795 10C15.5509 10 16.3866 9.64881 17.0028 9.02369C17.619 8.39857 17.9652 7.55072 17.9652 6.66667C17.9652 3.65778 14.6795 0 14.6795 0C14.6795 0 11.3938 3.63444 11.3938 6.66667C11.3938 7.55072 11.7399 8.39857 12.3561 9.02369C12.9723 9.64881 13.8081 10 14.6795 10Z" fill="white"/>
</svg>
