<svg width="19" height="20" viewBox="0 0 19 20" fill="none" xmlns="http://www.w3.org/2000/svg">
<path d="M9.71455 12.4766V19.7712H2.51079e-07C-0.000301262 18.6216 0.27096 17.4871 0.792998 16.4547C1.31504 15.4224 2.074 14.5195 3.01172 13.8154C3.94945 13.1113 5.04105 12.6245 6.20289 12.3925C7.36473 12.1604 8.56597 12.1892 9.71455 12.4766ZM7.77164 11.2978C4.55127 11.2978 1.94291 8.76995 1.94291 5.64892C1.94291 2.52789 4.55127 0 7.77164 0C10.992 0 13.6004 2.52789 13.6004 5.64892C13.6004 8.76995 10.992 11.2978 7.77164 11.2978ZM14.9779 15.0638H18.4615V16.9468H14.9779L16.7547 18.6678L15.3811 20L11.2592 16.0053L15.3811 12.0105L16.7547 13.3427L14.9779 15.0638Z" fill="white"/>
</svg>
